# xmcd CD database file
#
# Track frame offsets:
#	150
#	28247
#	54618
#	82848
#	109974
#	131668
#	161141
#	184960
#	212169
#	239182
#
# Disc length: 3708 seconds
#
# Revision: 0
# Processed by: cddbd v1.5.1PL0 Copyright (c) Steve Scherf et al.
# Submitted via: CDex 1.51
#
DISCID=960e7a0a
DTITLE=X JAPAN - Best Of X -全てはここに集結す-
DYEAR=1900
DGENRE=JPop
TTITLE0=Silent Jealoasy(LIVE)
TTITLE1=Desperate Angel
TTITLE2=紅
TTITLE3=WEEK END(LIVE)
TTITLE4=CELEBRATION
TTITLE5=ENDLESS RAIN
TTITLE6=JOKER(LIVE)
TTITLE7=Sadistic Desire
TTITLE8=X
TTITLE9=0
EXTD=
EXTT0=
EXTT1=
EXTT2=
EXTT3=
EXTT4=
EXTT5=
EXTT6=
EXTT7=
EXTT8=
EXTT9=
PLAYORDER=
